<svg xmlns="http://www.w3.org/2000/svg" width="512" height="512" viewBox="0 0 512 512">
<g>
<path d="M 291.37 429.93 C288.75,431.98 288.12,432.00 216.12,431.93 C214.09,431.92 212.12,431.92 210.20,431.92 C150.26,431.86 138.79,431.85 128.81,427.99 C126.13,426.95 123.56,425.63 120.18,423.96 C113.01,420.42 109.84,418.00 101.95,410.09 C94.06,402.16 91.69,399.03 88.29,392.00 C86.80,388.93 85.60,386.70 84.62,384.37 C80.47,374.45 80.47,362.78 80.50,277.13 C80.50,270.54 80.50,263.50 80.50,256.00 C80.50,248.39 80.50,241.26 80.50,234.58 C80.47,149.32 80.47,137.66 84.61,127.72 C85.59,125.37 86.80,123.11 88.30,120.00 C91.71,112.94 94.01,109.89 101.95,101.95 C109.79,94.10 113.02,91.66 120.00,88.23 C122.93,86.80 125.08,85.63 127.32,84.67 C137.21,80.47 148.87,80.48 236.47,80.50 C242.89,80.50 249.73,80.50 257.00,80.50 C265.25,80.50 272.93,80.50 280.09,80.50 C364.43,80.47 375.78,80.47 385.38,84.55 C387.69,85.53 389.90,86.75 393.00,88.26 C399.89,91.62 403.22,94.12 410.62,101.48 C418.40,109.23 420.43,111.97 424.39,120.11 C426.02,123.46 427.30,126.08 428.30,128.80 C431.96,138.70 431.97,149.96 431.98,203.19 L 431.98 204.16 L 432.00 264.82 L 428.92 267.41 C427.23,268.83 425.48,270.00 425.04,270.00 C424.60,270.00 421.29,268.89 417.69,267.54 C414.09,266.18 408.13,264.76 404.45,264.38 C399.64,263.89 397.02,263.07 395.13,261.44 L 392.50 259.17 L 392.00 201.34 C391.50,144.07 391.48,143.46 389.28,139.00 C385.62,131.59 381.38,127.31 374.24,123.80 L 367.54 120.50 L 145.46 120.50 L 138.81 123.77 C131.20,127.52 126.81,132.04 123.10,139.95 L 120.50 145.50 L 120.50 366.50 L 123.31 372.50 C126.88,380.14 134.30,387.22 141.60,389.95 C146.90,391.93 149.05,392.00 208.79,392.01 C256.41,392.03 271.07,392.32 272.99,393.29 C274.36,393.98 277.06,397.42 278.99,400.93 C280.92,404.45 285.09,410.18 288.25,413.68 C293.18,419.14 294.00,420.59 294.00,423.95 C294.00,426.98 293.41,428.32 291.37,429.93 ZM 173.68 329.64 C172.01,331.80 171.12,332.00 163.08,332.00 C155.85,332.00 154.02,331.68 152.65,330.17 C151.74,329.17 151.00,327.56 151.00,326.61 C151.00,325.65 158.47,301.61 167.61,273.18 C176.74,244.76 187.57,210.93 191.67,198.00 C196.69,182.17 199.79,173.93 201.17,172.75 C202.88,171.30 205.24,171.00 215.18,171.00 C221.75,171.00 227.98,171.46 229.02,172.01 C231.01,173.08 234.14,182.37 264.92,278.66 C273.22,304.59 280.00,326.46 280.00,327.25 C280.00,328.04 279.18,329.43 278.17,330.35 C275.88,332.42 260.33,332.73 257.75,330.75 C256.86,330.06 254.27,323.76 252.01,316.75 L 247.89 304.00 L 182.44 304.00 L 178.97 315.64 C177.06,322.05 174.68,328.35 173.68,329.64 ZM 403.73 472.75 C403.20,473.44 401.97,474.00 401.00,474.00 C400.03,474.00 398.78,473.44 398.21,472.75 C397.65,472.06 393.52,462.33 389.05,451.13 C375.36,416.86 372.65,414.21 337.08,400.32 C323.11,394.86 316.09,392.21 316.07,389.49 C316.04,386.82 322.73,384.09 336.19,378.60 C336.62,378.43 337.06,378.25 337.50,378.07 C362.30,367.95 363.86,367.15 370.12,361.29 C377.36,354.52 380.46,348.89 389.47,326.23 C397.48,306.07 397.79,305.49 400.70,305.20 L 403.70 304.90 L 411.01 323.20 C420.70,347.48 423.22,352.34 429.61,359.03 C436.43,366.18 440.86,368.58 465.50,378.47 C485.84,386.64 487.90,388.01 485.00,391.50 C484.36,392.27 475.66,396.12 465.67,400.07 C443.58,408.78 438.92,411.08 432.57,416.37 C425.23,422.50 421.02,429.91 412.45,451.76 C408.19,462.62 404.27,472.06 403.73,472.75 ZM 338.17 330.35 C336.78,331.60 334.37,332.00 328.17,332.00 C326.92,332.00 325.80,332.08 324.78,332.15 C322.76,332.28 321.19,332.39 319.98,331.78 C315.85,329.71 315.90,319.30 316.13,273.37 C316.17,266.67 316.20,259.20 316.23,250.90 C316.26,242.30 316.28,234.62 316.29,227.76 C316.37,183.22 316.38,173.13 320.40,171.15 C321.57,170.57 323.09,170.69 325.05,170.83 C326.09,170.91 327.24,171.00 328.54,171.00 C335.17,171.00 337.00,171.34 338.35,172.83 C339.85,174.50 340.00,181.41 340.00,251.67 C340.00,325.02 339.91,328.77 338.17,330.35 ZM 191.00 279.25 C191.00,279.66 202.02,280.00 215.50,280.00 C228.98,280.00 240.00,279.71 240.00,279.36 C240.00,279.01 235.02,263.38 228.93,244.61 C222.85,225.85 217.40,209.00 216.83,207.16 C216.25,205.32 215.45,204.19 215.05,204.66 C214.32,205.50 191.00,277.83 191.00,279.25 Z" fill="rgb(0,0,0)"/>
<path d="M 0.00 256.00 L 0.00 0.00 L 256.00 0.00 L 512.00 0.00 L 512.00 256.00 L 512.00 512.00 L 256.00 512.00 L 0.00 512.00 L 0.00 256.00 ZM 403.73 472.75 C404.27,472.06 408.19,462.62 412.45,451.76 C421.02,429.91 425.23,422.50 432.57,416.37 C438.92,411.08 443.58,408.78 465.67,400.07 C475.66,396.12 484.36,392.27 485.00,391.50 C487.90,388.01 485.84,386.64 465.50,378.47 C440.86,368.58 436.43,366.18 429.61,359.03 C423.22,352.34 420.70,347.48 411.01,323.20 L 403.70 304.90 L 400.70 305.20 C397.79,305.49 397.48,306.07 389.47,326.23 C380.46,348.89 377.36,354.52 370.12,361.29 C363.86,367.15 362.30,367.95 337.50,378.07 C308.99,389.70 308.99,389.34 337.08,400.32 C372.65,414.21 375.36,416.86 389.05,451.13 C393.52,462.33 397.65,472.06 398.21,472.75 C398.78,473.44 400.03,474.00 401.00,474.00 C401.97,474.00 403.20,473.44 403.73,472.75 ZM 291.37 429.93 C293.41,428.32 294.00,426.98 294.00,423.95 C294.00,420.59 293.18,419.14 288.25,413.68 C285.09,410.18 280.92,404.45 278.99,400.93 C277.06,397.42 274.36,393.98 272.99,393.29 C271.07,392.32 256.41,392.03 208.79,392.01 C149.05,392.00 146.90,391.93 141.60,389.95 C134.30,387.22 126.88,380.14 123.31,372.50 L 120.50 366.50 L 120.50 256.00 L 120.50 145.50 L 123.10 139.95 C126.81,132.04 131.20,127.52 138.81,123.77 L 145.46 120.50 L 256.50 120.50 L 367.54 120.50 L 374.24 123.80 C381.38,127.31 385.62,131.59 389.28,139.00 C391.48,143.46 391.50,144.07 392.00,201.34 L 392.50 259.17 L 395.13 261.44 C397.02,263.07 399.64,263.89 404.45,264.38 C408.13,264.76 414.09,266.18 417.69,267.54 C421.29,268.89 424.60,270.00 425.04,270.00 C425.48,270.00 427.23,268.83 428.92,267.41 L 432.00 264.82 L 431.98 204.16 C431.96,135.36 432.00,135.76 424.39,120.11 C420.43,111.97 418.40,109.23 410.62,101.48 C403.22,94.12 399.89,91.62 393.00,88.26 C375.92,79.93 385.86,80.50 257.00,80.50 C128.09,80.50 136.77,80.01 120.00,88.23 C113.02,91.66 109.79,94.10 101.95,101.95 C94.01,109.89 91.71,112.94 88.30,120.00 C79.97,137.29 80.50,128.13 80.50,256.00 C80.50,383.85 79.98,374.84 88.29,392.00 C91.69,399.03 94.06,402.16 101.95,410.09 C109.84,418.00 113.01,420.42 120.18,423.96 C136.53,432.05 134.04,431.84 216.12,431.93 C288.12,432.00 288.75,431.98 291.37,429.93 ZM 173.68 329.64 C174.68,328.35 177.06,322.05 178.97,315.64 L 182.44 304.00 L 215.17 304.00 L 247.89 304.00 L 252.01 316.75 C254.27,323.76 256.86,330.06 257.75,330.75 C260.33,332.73 275.88,332.42 278.17,330.35 C279.18,329.43 280.00,328.04 280.00,327.25 C280.00,326.46 273.22,304.59 264.92,278.66 C234.14,182.37 231.01,173.08 229.02,172.01 C227.98,171.46 221.75,171.00 215.18,171.00 C205.24,171.00 202.88,171.30 201.17,172.75 C199.79,173.93 196.69,182.17 191.67,198.00 C187.57,210.93 176.74,244.76 167.61,273.18 C158.47,301.61 151.00,325.65 151.00,326.61 C151.00,327.56 151.74,329.17 152.65,330.17 C154.02,331.68 155.85,332.00 163.08,332.00 C171.12,332.00 172.01,331.80 173.68,329.64 ZM 338.17 330.35 C339.91,328.77 340.00,325.02 340.00,251.67 C340.00,181.41 339.85,174.50 338.35,172.83 C337.00,171.34 335.17,171.00 328.54,171.00 C315.09,171.00 316.54,161.59 316.23,250.90 C315.92,341.05 314.59,332.00 328.17,332.00 C334.37,332.00 336.78,331.60 338.17,330.35 ZM 191.00 279.25 C191.00,277.83 214.32,205.50 215.05,204.66 C215.45,204.19 216.25,205.32 216.83,207.16 C217.40,209.00 222.85,225.85 228.93,244.61 C235.02,263.38 240.00,279.01 240.00,279.36 C240.00,279.71 228.98,280.00 215.50,280.00 C202.02,280.00 191.00,279.66 191.00,279.25 Z" fill="rgb(254,254,254)"/>
</g>
</svg>