<?xml version="1.0" encoding="utf-8"?>
<!-- Generator: Adobe Illustrator 27.5.0, SVG Export Plug-In . SVG Version: 6.00 Build 0)  -->
<svg version="1.1" id="Layer_1" xmlns="http://www.w3.org/2000/svg" xmlns:xlink="http://www.w3.org/1999/xlink" x="0px" y="0px"
	 viewBox="0 0 4000 4000" style="enable-background:new 0 0 4000 4000;" xml:space="preserve">
<rect style="fill-rule:evenodd;clip-rule:evenodd;fill:#0E0254;" width="4000" height="4000"/>
<rect style="fill:none;stroke:#000000;stroke-width:0.5669;stroke-miterlimit:22.9256;" width="4000" height="4000"/>
<g>
	<defs>
		<path id="SVGID_1_" d="M2582.903,1191.992h-582.898c-320.594,0-582.898,262.304-582.898,582.898v582.898h582.898
			c320.594,0,582.898-262.304,582.898-582.898v-94.302h-281.806h-154.016h-193.683c-77.498,0-140.903,63.405-140.903,140.902
			v140.904h422.271c-55.394,69.031-140.322,113.587-234.76,113.587h-301.09v-301.091c0-165.044,136.047-301.091,301.09-301.091
			h147.076h154.016H2442c77.736-0.203,140.7-63.169,140.903-140.903V1191.992z"/>
	</defs>
	<clipPath id="SVGID_00000167374702214984431890000000221694881431696300_">
		<use xlink:href="#SVGID_1_"  style="overflow:visible;"/>
	</clipPath>
	
		<linearGradient id="SVGID_00000087378187386482224810000009861511000305357725_" gradientUnits="userSpaceOnUse" x1="1417.574" y1="2227.2439" x2="2910.6543" y2="1067.6223">
		<stop  offset="0" style="stop-color:#0463EF"/>
		<stop  offset="0.38" style="stop-color:#F834EE"/>
		<stop  offset="1" style="stop-color:#FFFF00"/>
	</linearGradient>
	
		<rect x="1417.108" y="1191.992" style="clip-path:url(#SVGID_00000167374702214984431890000000221694881431696300_);fill:url(#SVGID_00000087378187386482224810000009861511000305357725_);" width="1165.795" height="1165.796"/>
</g>
<g>
	<g>
		<text transform="matrix(1.2178 0 0 1 1138.9644 2704.7246)" style="fill:#FFFFFF; font-family:'Impact'; font-size:212.2042px;">C</text>
	</g>
</g>
<g>
	<g>
		<text transform="matrix(1.2178 0 0 1 1294.2446 2704.7246)" style="fill:#FFFFFF; font-family:'Impact'; font-size:212.2042px;">O</text>
	</g>
</g>
<g>
	<g>
		<text transform="matrix(1.2178 0 0 1 1447.6255 2704.7246)" style="fill:#FFFFFF; font-family:'Impact'; font-size:212.2042px;">M</text>
	</g>
</g>
<g>
	<g>
		<text transform="matrix(1.2178 0 0 1 1645.0718 2704.7246)" style="fill:#FFFFFF; font-family:'Impact'; font-size:212.2042px;">P</text>
	</g>
</g>
<g>
	<g>
		<text transform="matrix(1.2178 0 0 1 1780.5376 2704.7246)" style="fill:#FFFFFF; font-family:'Impact'; font-size:212.2042px;">A</text>
	</g>
</g>
<g>
	<g>
		<text transform="matrix(1.2178 0 0 1 1923.9702 2704.7246)" style="fill:#FFFFFF; font-family:'Impact'; font-size:212.2042px;">N</text>
	</g>
</g>
<g>
	<g>
		<text transform="matrix(1.2178 0 0 1 2076.1055 2704.7246)" style="fill:#FFFFFF; font-family:'Impact'; font-size:212.2042px;">Y </text>
	</g>
</g>
<g>
	<g>
		<text transform="matrix(1.2178 0 0 1 2256.1523 2704.7246)" style="fill:#FFFFFF; font-family:'Impact'; font-size:212.2042px;">N</text>
	</g>
</g>
<g>
	<g>
		<text transform="matrix(1.2178 0 0 1 2408.2832 2704.7246)" style="fill:#FFFFFF; font-family:'Impact'; font-size:212.2042px;">A</text>
	</g>
</g>
<g>
	<g>
		<text transform="matrix(1.2178 0 0 1 2551.7188 2704.7246)" style="fill:#FFFFFF; font-family:'Impact'; font-size:212.2042px;">M</text>
	</g>
</g>
<g>
	<g>
		<text transform="matrix(1.2178 0 0 1 2749.1602 2704.7246)" style="fill:#FFFFFF; font-family:'Impact'; font-size:212.2042px;">E</text>
	</g>
</g>
<g>
	<g>
		<text transform="matrix(1.3474 0 0 1 1541.6323 2806.7842)" style="fill:#FFFFFF; font-family:'Impact'; font-size:71.9125px;">S</text>
	</g>
</g>
<g>
	<g>
		<text transform="matrix(1.3474 0 0 1 1640.1792 2806.7842)" style="fill:#FFFFFF; font-family:'Impact'; font-size:71.9125px;">L</text>
	</g>
</g>
<g>
	<g>
		<text transform="matrix(1.3474 0 0 1 1723.9995 2806.7842)" style="fill:#FFFFFF; font-family:'Impact'; font-size:71.9125px;">O</text>
	</g>
</g>
<g>
	<g>
		<text transform="matrix(1.3474 0 0 1 1825.3726 2806.7842)" style="fill:#FFFFFF; font-family:'Impact'; font-size:71.9125px;">G</text>
	</g>
</g>
<g>
	<g>
		<text transform="matrix(1.3474 0 0 1 1927.228 2806.7842)" style="fill:#FFFFFF; font-family:'Impact'; font-size:71.9125px;">A</text>
	</g>
</g>
<g>
	<g>
		<text transform="matrix(1.3474 0 0 1 2024.875 2806.7842)" style="fill:#FFFFFF; font-family:'Impact'; font-size:71.9125px;">N</text>
	</g>
</g>
<g>
	<g>
		<text transform="matrix(1.3474 0 0 1 2125.7793 2806.7842)" style="fill:#FFFFFF; font-family:'Impact'; font-size:71.9125px;">H</text>
	</g>
</g>
<g>
	<g>
		<text transform="matrix(1.3474 0 0 1 2228.0078 2806.7842)" style="fill:#FFFFFF; font-family:'Impact'; font-size:71.9125px;">E</text>
	</g>
</g>
<g>
	<g>
		<text transform="matrix(1.3474 0 0 1 2316.707 2806.7842)" style="fill:#FFFFFF; font-family:'Impact'; font-size:71.9125px;">R</text>
	</g>
</g>
<g>
	<g>
		<text transform="matrix(1.3474 0 0 1 2417.3164 2806.7842)" style="fill:#FFFFFF; font-family:'Impact'; font-size:71.9125px;">E</text>
	</g>
</g>
</svg>
