<svg xmlns="http://www.w3.org/2000/svg" xmlns:xlink="http://www.w3.org/1999/xlink" width="500" zoomAndPan="magnify" viewBox="0 0 375 374.999991" height="500" preserveAspectRatio="xMidYMid meet" version="1.0"><defs><clipPath id="0002c45952"><path d="M 122.652344 107 L 249 107 L 249 236 L 122.652344 236 Z M 122.652344 107 " clip-rule="nonzero"/></clipPath></defs><rect x="-37.5" width="450" fill="#ffffff" y="-37.499999" height="449.999989" fill-opacity="1"/><rect x="-37.5" width="450" fill="#ffffff" y="-37.499999" height="449.999989" fill-opacity="1"/><g clip-path="url(#0002c45952)"><path fill="#070738" d="M 187.113281 235.933594 C 205.308594 235.933594 221.742188 228.433594 233.460938 216.375 C 245.394531 204.097656 252.335938 186.175781 246.324219 169.367188 C 239.695312 150.847656 221.109375 143.65625 202.484375 145.304688 C 183.179688 147.003906 169.886719 160.449219 163.46875 177.648438 C 181.21875 162.804688 209.199219 164.863281 222.921875 184.207031 C 241.890625 210.941406 194.960938 248.335938 156.597656 222.59375 C 126.582031 202.4375 128.117188 150.285156 156.628906 128.054688 C 185.234375 105.753906 220.746094 112.164062 242.945312 139.804688 C 231.804688 120.636719 210.972656 107.742188 187.113281 107.742188 C 151.519531 107.742188 122.664062 136.4375 122.664062 171.835938 C 122.664062 207.234375 151.519531 235.933594 187.113281 235.933594 " fill-opacity="1" fill-rule="evenodd"/></g><path fill="#0097e0" d="M 232.648438 147.203125 C 213.0625 116.886719 173.8125 111.417969 151.140625 139.316406 C 134.339844 159.984375 138.304688 192.9375 160.257812 208.332031 C 164.847656 211.257812 169.484375 213.230469 174.179688 214.226562 C 194.488281 218.53125 216.574219 203.203125 202.789062 181.914062 C 192.710938 170.707031 179.078125 170.996094 163.46875 177.644531 C 171.769531 143.449219 202.179688 134.105469 232.648438 147.203125 " fill-opacity="1" fill-rule="evenodd"/></svg>